<svg xmlns="http://www.w3.org/2000/svg" fill="none" viewBox="0 0 80 80"><rect width="80" height="80" fill="#607D8B" rx="40"/><mask id="mask0_1_2" width="56" height="56" x="12" y="12" maskUnits="userSpaceOnUse" style="mask-type:alpha"><rect width="56" height="56" x="12" y="12" fill="#D9D9D9"/></mask><g mask="url(#mask0_1_2)"><path fill="#fff" d="M23.6667 36.9667H27.575V27.1083C27.575 26.5639 27.3903 26.0972 27.0208 25.7083C26.6514 25.3194 26.175 25.125 25.5917 25.125C25.0472 25.125 24.5903 25.3194 24.2208 25.7083C23.8514 26.0972 23.6667 26.5639 23.6667 27.1083V36.9667ZM25.5917 57.5C23.0639 57.5 20.9347 56.6347 19.2042 54.9042C17.4736 53.1736 16.6083 51.0444 16.6083 48.5167C16.6083 46.8833 17.0069 45.3958 17.8042 44.0542C18.6014 42.7125 19.6611 41.6333 20.9833 40.8167V27.1083C20.9833 25.825 21.4403 24.7361 22.3542 23.8417C23.2681 22.9472 24.3472 22.5 25.5917 22.5C26.9139 22.5 28.0125 22.9472 28.8875 23.8417C29.7625 24.7361 30.2 25.825 30.2 27.1083V40.8167C31.5222 41.6333 32.5917 42.7125 33.4083 44.0542C34.225 45.3958 34.6333 46.8833 34.6333 48.5167C34.6333 51.0056 33.7486 53.125 31.9792 54.875C30.2097 56.625 28.0806 57.5 25.5917 57.5ZM43.3833 46.7667C41.7111 45.6389 40.2528 44.1319 39.0083 42.2458C37.7639 40.3597 37.1417 38.1528 37.1417 35.625C37.1417 32.0083 38.425 28.9167 40.9917 26.35C43.5583 23.7833 46.65 22.5 50.2667 22.5C53.9611 22.5 57.0819 23.7736 59.6292 26.3208C62.1764 28.8681 63.45 31.9694 63.45 35.625C63.45 38.1528 62.8181 40.3597 61.5542 42.2458C60.2903 44.1319 58.8222 45.6389 57.15 46.7667H43.3833ZM50.2667 57.5C49.5667 57.5 48.9542 57.2667 48.4292 56.8C47.9042 56.3333 47.5833 55.75 47.4667 55.05H53.0667C52.9889 55.75 52.6875 56.3333 52.1625 56.8C51.6375 57.2667 51.0056 57.5 50.2667 57.5ZM44.375 52.6V49.975H56.1583V52.6H44.375Z"/></g></svg>